<svg width="1920" height="8263" viewBox="0 0 1920 8263" fill="none" xmlns="http://www.w3.org/2000/svg">
<g clip-path="url(#clip0_1:32)">
<rect width="1920" height="8263" fill="#FBF8FF"/>
<path d="M1869.51 8449.5C2029.08 8495.58 2194.01 8236.5 2194.01 8236.5L2108.51 7662.94C2108.51 7662.94 2018.84 7316 1759.51 7316C1500.17 7316 1496.27 7632 1217.69 7632C959.366 7632 1216.19 7795.29 840.188 7978C464.188 8160.71 582.005 8759.5 1038.01 8759.5C1494.01 8759.5 1379.51 8308 1869.51 8449.5Z" fill="#E9F2FF"/>
<path d="M1705 2796C1864.57 2842.08 2029.5 2583 2029.5 2583L1944 2009.44C1944 2009.44 1854.33 1662.5 1595 1662.5C1335.66 1662.5 1264.58 1960.5 985.999 1960.5C727.677 1960.5 863 2203.29 487 2386C111 2568.71 417.499 3106 873.5 3106C1329.5 3106 1215 2654.5 1705 2796Z" fill="#E9F2FF"/>
<path d="M1523.07 5315.26C1697.5 5394.5 1842.03 5327.21 1957.5 5229C2130.01 5082.28 2132.23 4876.93 2081 4653.5C2038.05 4466.18 2070.37 4258.55 1788 4226C1505.63 4193.45 1536.5 4449.44 1289.5 4623C1078.14 4771.51 683.001 4348.31 460.5 4512.5C238 4676.69 310.008 5037.48 743 5180.5C1175.99 5323.52 1058.72 5104.31 1523.07 5315.26Z" fill="#E9F2FF"/>
<path d="M1021.45 41.7874C944.964 -226.212 1191.21 -402.184 1312.47 -453.794C1387.09 -640.958 1870.26 -628.522 1842.28 -488.615C1814.3 -348.708 1887.68 -188.903 2041.89 -39.6695C2196.11 109.565 2199.22 417.36 1899.49 626.909C1599.76 836.458 1138.98 680.384 1130.89 493.22C1122.81 306.056 1097.94 309.787 1021.45 41.7874Z" fill="#E8F2FF" stroke="#E8F2FF"/>
<path opacity="0.2" d="M1404.18 218.036C1422.65 59.6553 1591.42 20.8096 1666.83 20.1927C1747.38 -62.2807 1999.93 50.4653 1954.41 118.223C1908.88 185.981 1912.54 286.524 1961.24 399.247C2009.93 511.971 1943.95 675.25 1739.54 720.081C1535.14 764.913 1325.97 581.208 1362.82 480.56C1399.67 379.913 1385.71 376.418 1404.18 218.036Z" stroke="#266CE0"/>
<path d="M3.02829 1681.87C-216.868 1682.75 -303.307 1467.06 -319.073 1368.03C-447.617 1275.24 -343.666 925.335 -242.145 974.416C-140.624 1023.5 -4.07504 1002.72 140.191 920.799C284.458 838.882 520.445 899.684 622.108 1161.26C723.771 1422.84 528.748 1544 310.748 1465.5C171.214 1415.25 222.925 1680.99 3.02829 1681.87Z" fill="#F4EEFB" stroke="#E8F2FF"/>
<path d="M1013.94 6563.57C1196.26 6933.03 1407.2 6859.8 1264.4 7036.98C1152.86 7175.37 383.234 7294.82 364.897 7168.17C346.56 7041.52 68.4236 7136.03 -100.257 7052.4C-268.938 6968.77 -227.76 6571.72 -80.801 6289.17C62.7435 6013.18 432.662 6096.17 487.354 6348.3C524.579 6519.9 885.091 6302.47 1013.94 6563.57Z" fill="#F4EEFB" stroke="#E8F2FF"/>
<path d="M-24.5003 3881.5C-203.988 3754.46 -120 3389.25 -120 3389.25C-120 3389.25 -2.00022 3079.5 242.93 3210.75C379.5 3283.94 368 3428.65 585.27 3389.25C917.5 3329 1205.73 3539.53 1136.5 3811.5C1067.27 4083.47 533.826 4055.05 402 3864.5C317.623 3742.54 154.987 4008.54 -24.5003 3881.5Z" fill="#F4EEFB" stroke="#E8F2FF"/>
<circle cx="1246.5" cy="2179.5" r="571.5" fill="url(#paint0_radial_1:32)" fill-opacity="0.15"/>
<circle cx="1897" cy="2045" r="549" fill="url(#paint1_radial_1:32)" fill-opacity="0.13"/>
<circle cx="174" cy="3357" r="549" fill="url(#paint2_radial_1:32)" fill-opacity="0.13"/>
<circle cx="1635" cy="4699" r="549" fill="url(#paint3_radial_1:32)" fill-opacity="0.13"/>
<circle cx="234" cy="6928" r="549" fill="url(#paint4_radial_1:32)" fill-opacity="0.13"/>
<circle cx="1475" cy="7141" r="549" fill="url(#paint5_radial_1:32)" fill-opacity="0.13"/>
<circle cx="1405" cy="5718" r="465" fill="url(#paint6_radial_1:32)" fill-opacity="0.13"/>
<circle cx="1566.5" cy="572.5" r="504.5" fill="url(#paint7_radial_1:32)" fill-opacity="0.2"/>
<circle cx="-1" cy="1101" r="484" fill="url(#paint8_radial_1:32)" fill-opacity="0.2"/>
<circle cx="1850" cy="3433" r="484" fill="url(#paint9_radial_1:32)" fill-opacity="0.2"/>
<circle cx="112" cy="5554" r="484" fill="url(#paint10_radial_1:32)" fill-opacity="0.2"/>
<circle cx="202" cy="7452" r="484" fill="url(#paint11_radial_1:32)" fill-opacity="0.2"/>
<circle cx="981" cy="4453" r="484" fill="url(#paint12_radial_1:32)" fill-opacity="0.15"/>
<circle cx="75.5" cy="2271.5" r="509.5" fill="url(#paint13_radial_1:32)" fill-opacity="0.1"/>
<circle cx="1670" cy="381" r="455" fill="url(#paint14_radial_1:32)" fill-opacity="0.2"/>
<circle cx="452.5" cy="2688.5" r="440.5" fill="url(#paint15_radial_1:32)" fill-opacity="0.15"/>
<circle cx="1246.5" cy="824.5" r="5.5" fill="#6745DF"/>
<circle cx="1246.5" cy="4691.5" r="5.5" fill="#6745DF"/>
<circle cx="1099.5" cy="666.5" r="5.5" fill="#E6FCF5"/>
<circle cx="1673.5" cy="893.5" r="5.5" fill="#957DF3"/>
<circle cx="1673.5" cy="4760.5" r="5.5" fill="#957DF3"/>
<circle cx="1634.5" cy="6436.5" r="5.5" fill="#957DF3"/>
<circle cx="1584.5" cy="7343.5" r="5.5" fill="#957DF3"/>
<circle cx="490.5" cy="6782.5" r="5.5" fill="#957DF3"/>
<circle cx="861.5" cy="887.5" r="5.5" fill="#957DF3"/>
<circle cx="861.5" cy="4754.5" r="5.5" fill="#957DF3"/>
<circle cx="734.5" cy="3854.5" r="5.5" fill="#957DF3"/>
<circle cx="1099.5" cy="1063.5" r="5.5" fill="#D4E7FE"/>
<circle cx="1662.5" cy="536.5" r="5.5" fill="#FDD9DE"/>
<circle cx="1662.5" cy="4403.5" r="5.5" fill="#FDD9DE"/>
<circle cx="1572.5" cy="208.5" r="5.5" fill="#FF596D"/>
<circle cx="1833.5" cy="416.5" r="5.5" fill="#FF960D"/>
<circle cx="1833.5" cy="4283.5" r="5.5" fill="#FF960D"/>
<circle cx="1278.5" cy="3827.5" r="5.5" fill="#FF960D"/>
<circle cx="820.5" cy="197.5" r="5.5" fill="#FF6502"/>
<circle cx="382.5" cy="845.5" r="5.5" fill="#6CA5EC"/>
<circle cx="666.5" cy="4914.5" r="5.5" fill="#6CA5EC"/>
<circle cx="206.5" cy="1040.5" r="5.5" fill="#C4C4C4"/>
<circle cx="48.5" cy="631.5" r="5.5" fill="#FFB862"/>
<circle cx="48.5" cy="4498.5" r="5.5" fill="#FFB862"/>
<circle cx="832.5" cy="5225.5" r="5.5" fill="#FFB862"/>
<circle cx="413.5" cy="4832.5" r="5.5" fill="#FFB862"/>
<circle cx="1029.5" cy="1761.5" r="5.5" fill="#FFB862"/>
<circle cx="1572.5" cy="2310.5" r="5.5" fill="#FFB862"/>
<circle cx="926.5" cy="2432.5" r="5.5" fill="#FFB862"/>
<circle cx="940.5" cy="2330.5" r="5.5" fill="#FFB862"/>
<circle cx="295.5" cy="2498.5" r="5.5" fill="#FFB862"/>
<circle cx="295.5" cy="2881.5" r="5.5" fill="#FFB862"/>
<circle cx="102.5" cy="3523.5" r="5.5" fill="#FFB862"/>
<circle cx="1493.5" cy="2796.5" r="5.5" fill="#FFB862"/>
<circle cx="854.5" cy="3339.5" r="5.5" fill="#FFB862"/>
<circle cx="1862" cy="189" r="13" stroke="#6CA5EC" stroke-width="2"/>
<circle cx="1473" cy="311" r="13" stroke="#FF6502" stroke-width="2"/>
<circle cx="1393" cy="4118" r="13" stroke="#FF6502" stroke-width="2"/>
<circle cx="940" cy="1795" r="13" stroke="#FF6502" stroke-width="2"/>
<circle cx="1633" cy="2169" r="13" stroke="#FF6502" stroke-width="2"/>
<circle cx="972" cy="122" r="13" stroke="#99BCE8" stroke-width="2"/>
<circle cx="1261" cy="957" r="13" stroke="#6CA5EC" stroke-width="2"/>
<circle cx="1261" cy="4824" r="13" stroke="#6CA5EC" stroke-width="2"/>
<circle cx="262" cy="5496" r="13" stroke="#6CA5EC" stroke-width="2"/>
<circle cx="974" cy="5843" r="13" stroke="#6CA5EC" stroke-width="2"/>
<circle cx="1848" cy="774" r="13" stroke="#8CD9C2" stroke-width="2"/>
<circle cx="1848" cy="4641" r="13" stroke="#8CD9C2" stroke-width="2"/>
<circle cx="971" cy="3983" r="13" stroke="#8CD9C2" stroke-width="2"/>
<circle cx="1137" cy="756" r="13" stroke="#FFD83B" stroke-width="2"/>
<circle cx="1137" cy="4623" r="13" stroke="#FFD83B" stroke-width="2"/>
<circle cx="57" cy="827" r="13" stroke="#987AFA" stroke-width="2"/>
<circle cx="57" cy="4694" r="13" stroke="#987AFA" stroke-width="2"/>
<circle cx="262" cy="3326" r="13" stroke="#987AFA" stroke-width="2"/>
<circle cx="234" cy="536" r="13" stroke="#FFD83B" stroke-width="2"/>
<circle cx="234" cy="4403" r="13" stroke="#FFD83B" stroke-width="2"/>
<circle cx="448" cy="3906" r="13" stroke="#FFD83B" stroke-width="2"/>
<circle cx="813" cy="2652" r="13" stroke="#FF6502" stroke-width="2"/>
<circle cx="756.5" cy="2690.5" r="5.5" fill="#FFB862"/>
<circle cx="1673.5" cy="3706.5" r="5.5" fill="#FFB862"/>
<circle cx="1512.5" cy="3293.5" r="5.5" fill="#FFB862"/>
<circle cx="276" cy="2413" r="13" stroke="#FF6502" stroke-width="2"/>
<circle cx="1643" cy="3192" r="13" stroke="#FF6502" stroke-width="2"/>
<circle cx="1660" cy="2832" r="13" stroke="#FF6502" stroke-width="2"/>
<circle cx="740" cy="5397" r="13" stroke="#FF6502" stroke-width="2"/>
<circle cx="1314" cy="3315" r="13" stroke="#FF6502" stroke-width="2"/>
<circle cx="943" cy="6640" r="13" stroke="#FF6502" stroke-width="2"/>
<circle cx="111" cy="2780" r="13" stroke="#FF6502" stroke-width="2"/>
<circle cx="1779" cy="1562" r="13" stroke="#FF6502" stroke-width="2"/>
<circle cx="1345.5" cy="6774.5" r="5.5" fill="#957DF3"/>
<circle cx="414.5" cy="6241.5" r="5.5" fill="#6CA5EC"/>
<circle cx="1446.5" cy="5885.5" r="5.5" fill="#6CA5EC"/>
<circle cx="80.5" cy="5487.5" r="5.5" fill="#FFB862"/>
<circle cx="347.5" cy="6627.5" r="5.5" fill="#FFB862"/>
<circle cx="1577.5" cy="5548.5" r="5.5" fill="#FFB862"/>
<circle cx="106.5" cy="7485.5" r="5.5" fill="#FFB862"/>
<circle cx="662.5" cy="7040.5" r="5.5" fill="#FFB862"/>
<circle cx="89" cy="6223" r="13" stroke="#987AFA" stroke-width="2"/>
<circle cx="210" cy="5154" r="13" stroke="#FFD83B" stroke-width="2"/>
<circle cx="1086" cy="5623" r="13" stroke="#FFD83B" stroke-width="2"/>
<circle cx="1635" cy="6668" r="13" stroke="#FFD83B" stroke-width="2"/>
<circle cx="1024" cy="7801" r="13" stroke="#FFD83B" stroke-width="2"/>
<circle cx="1507.5" cy="6507.5" r="5.5" fill="#FFB862"/>
<circle cx="1214" cy="6093" r="13" stroke="#FF6502" stroke-width="2"/>
<circle cx="1615" cy="5347" r="13" stroke="#FF6502" stroke-width="2"/>
<circle cx="1815" cy="5843" r="13" stroke="#FF6502" stroke-width="2"/>
<circle cx="1674" cy="6323" r="13" stroke="#FF6502" stroke-width="2"/>
<circle cx="103" cy="6808" r="13" stroke="#FF6502" stroke-width="2"/>
<circle cx="1496" cy="7865" r="13" stroke="#FF6502" stroke-width="2"/>
<circle cx="188" cy="7865" r="13" stroke="#FF6502" stroke-width="2"/>
<circle cx="367" cy="7271" r="13" stroke="#FF6502" stroke-width="2"/>
<circle cx="712" cy="6660" r="13" stroke="#FF6502" stroke-width="2"/>
</g>
<defs>
<radialGradient id="paint0_radial_1:32" cx="0" cy="0" r="1" gradientUnits="userSpaceOnUse" gradientTransform="translate(1246.5 2178.88) rotate(90) scale(572.123)">
<stop stop-color="#3886EE"/>
<stop offset="1" stop-color="#3886EE" stop-opacity="0"/>
</radialGradient>
<radialGradient id="paint1_radial_1:32" cx="0" cy="0" r="1" gradientUnits="userSpaceOnUse" gradientTransform="translate(1897 2044.4) rotate(90) scale(549.599)">
<stop stop-color="#3886EE"/>
<stop offset="1" stop-color="#3886EE" stop-opacity="0"/>
</radialGradient>
<radialGradient id="paint2_radial_1:32" cx="0" cy="0" r="1" gradientUnits="userSpaceOnUse" gradientTransform="translate(174 3356.4) rotate(90) scale(549.599)">
<stop stop-color="#3886EE"/>
<stop offset="1" stop-color="#3886EE" stop-opacity="0"/>
</radialGradient>
<radialGradient id="paint3_radial_1:32" cx="0" cy="0" r="1" gradientUnits="userSpaceOnUse" gradientTransform="translate(1635 4698.4) rotate(90) scale(549.599)">
<stop stop-color="#3886EE"/>
<stop offset="1" stop-color="#3886EE" stop-opacity="0"/>
</radialGradient>
<radialGradient id="paint4_radial_1:32" cx="0" cy="0" r="1" gradientUnits="userSpaceOnUse" gradientTransform="translate(234 6927.4) rotate(90) scale(549.599)">
<stop stop-color="#3886EE"/>
<stop offset="1" stop-color="#3886EE" stop-opacity="0"/>
</radialGradient>
<radialGradient id="paint5_radial_1:32" cx="0" cy="0" r="1" gradientUnits="userSpaceOnUse" gradientTransform="translate(1475 7140.4) rotate(90) scale(549.599)">
<stop stop-color="#3886EE"/>
<stop offset="1" stop-color="#3886EE" stop-opacity="0"/>
</radialGradient>
<radialGradient id="paint6_radial_1:32" cx="0" cy="0" r="1" gradientUnits="userSpaceOnUse" gradientTransform="translate(1405 5717.49) rotate(90) scale(465.507)">
<stop stop-color="#3886EE"/>
<stop offset="1" stop-color="#3886EE" stop-opacity="0"/>
</radialGradient>
<radialGradient id="paint7_radial_1:32" cx="0" cy="0" r="1" gradientUnits="userSpaceOnUse" gradientTransform="translate(1566.5 571.95) rotate(90) scale(505.05)">
<stop stop-color="#3886EE"/>
<stop offset="1" stop-color="#3886EE" stop-opacity="0"/>
</radialGradient>
<radialGradient id="paint8_radial_1:32" cx="0" cy="0" r="1" gradientUnits="userSpaceOnUse" gradientTransform="translate(-1 1100.47) rotate(90) scale(484.528)">
<stop stop-color="#957DF3"/>
<stop offset="1" stop-color="#957DF3" stop-opacity="0"/>
</radialGradient>
<radialGradient id="paint9_radial_1:32" cx="0" cy="0" r="1" gradientUnits="userSpaceOnUse" gradientTransform="translate(1850 3432.47) rotate(90) scale(484.528)">
<stop stop-color="#957DF3"/>
<stop offset="1" stop-color="#957DF3" stop-opacity="0"/>
</radialGradient>
<radialGradient id="paint10_radial_1:32" cx="0" cy="0" r="1" gradientUnits="userSpaceOnUse" gradientTransform="translate(112 5553.47) rotate(90) scale(484.528)">
<stop stop-color="#957DF3"/>
<stop offset="1" stop-color="#957DF3" stop-opacity="0"/>
</radialGradient>
<radialGradient id="paint11_radial_1:32" cx="0" cy="0" r="1" gradientUnits="userSpaceOnUse" gradientTransform="translate(202 7451.47) rotate(90) scale(484.528)">
<stop stop-color="#957DF3"/>
<stop offset="1" stop-color="#957DF3" stop-opacity="0"/>
</radialGradient>
<radialGradient id="paint12_radial_1:32" cx="0" cy="0" r="1" gradientUnits="userSpaceOnUse" gradientTransform="translate(981 4452.47) rotate(90) scale(484.528)">
<stop stop-color="#957DF3"/>
<stop offset="1" stop-color="#957DF3" stop-opacity="0"/>
</radialGradient>
<radialGradient id="paint13_radial_1:32" cx="0" cy="0" r="1" gradientUnits="userSpaceOnUse" gradientTransform="translate(75.5 2270.94) rotate(90) scale(510.056)">
<stop stop-color="#957DF3"/>
<stop offset="1" stop-color="#957DF3" stop-opacity="0"/>
</radialGradient>
<radialGradient id="paint14_radial_1:32" cx="0" cy="0" r="1" gradientUnits="userSpaceOnUse" gradientTransform="translate(1670 380.504) rotate(90) scale(455.496)">
<stop stop-color="#957DF3"/>
<stop offset="1" stop-color="#957DF3" stop-opacity="0"/>
</radialGradient>
<radialGradient id="paint15_radial_1:32" cx="0" cy="0" r="1" gradientUnits="userSpaceOnUse" gradientTransform="translate(452.5 2688.02) rotate(90) scale(440.98)">
<stop stop-color="white"/>
<stop offset="1" stop-color="white" stop-opacity="0"/>
</radialGradient>
<clipPath id="clip0_1:32">
<rect width="1920" height="8263" fill="white"/>
</clipPath>
</defs>
</svg>
